<?xml version="1.0" standalone="no"?>
<!DOCTYPE svg PUBLIC "-//W3C//DTD SVG 1.1//EN" "http://www.w3.org/Graphics/SVG/1.1/DTD/svg11.dtd" >
<svg xmlns="http://www.w3.org/2000/svg" xmlns:xlink="http://www.w3.org/1999/xlink" version="1.1">
<metadata></metadata>
<defs>
<font id="almoni_dl_aaaregular" horiz-adv-x="948" >
<font-face units-per-em="2048" ascent="1638" descent="-410" />
<missing-glyph horiz-adv-x="524" />
<glyph horiz-adv-x="0" />
<glyph horiz-adv-x="682" />
<glyph unicode=" "  horiz-adv-x="524" />
<glyph unicode="&#x09;" horiz-adv-x="524" />
<glyph unicode="&#xa0;" horiz-adv-x="524" />
<glyph unicode="!" horiz-adv-x="473" d="M135 0h203v197h-203v-197zM143 785v276h191v-276l-42 -429h-105z" />
<glyph unicode="&#x22;" horiz-adv-x="604" d="M98 765l71 440h122v-130l-130 -310h-63zM311 765l71 440h122v-130l-131 -310h-62z" />
<glyph unicode="#" horiz-adv-x="1157" d="M86 236l25 79h237l78 205h-242l25 80h248l84 223h84l-84 -223h225l84 223h84l-84 -223h223l-24 -80h-230l-78 -205h234l-25 -79h-237l-88 -236h-84l88 236h-226l-88 -236h-84l88 236h-233zM432 315h225l78 205h-223z" />
<glyph unicode="$" horiz-adv-x="801" d="M55 276h164q17 -61 54.5 -103.5t88.5 -49.5v385q-53 29 -81 44.5t-68 40.5t-60 45t-41 46.5t-29.5 55.5t-8.5 63q0 111 75.5 185.5t212.5 78.5v135h80v-137q275 -16 281 -270v-4h-160q-1 62 -35 106t-86 55v-334q21 -12 60 -32.5t62 -33t55.5 -34t52 -42t39.5 -48.5 t30.5 -63t12.5 -76q0 -122 -86 -198t-226 -85v-135h-80v135q-278 10 -307 270zM219 811q0 -42 35.5 -79.5t107.5 -80.5v305q-59 -4 -101 -46.5t-42 -98.5zM442 123q68 9 116 55t48 107t-37 101t-127 89v-352z" />
<glyph unicode="%" horiz-adv-x="997" d="M62 695v189q0 87 44 132.5t127 45.5q82 0 126 -45.5t44 -132.5v-189q0 -87 -44 -134t-126 -47t-126.5 47t-44.5 134zM153 684q0 -40 22 -70t58 -30q37 0 58.5 28.5t20.5 71.5v213q1 41 -20.5 67.5t-58.5 26.5t-58.5 -25t-21.5 -69v-213zM154 0l548 1062h91l-551 -1062 h-88zM539 175v189q0 87 44 132.5t127 45.5q82 0 126 -45.5t44 -132.5v-189q0 -87 -44 -134t-126 -47t-126.5 47t-44.5 134zM630 164q0 -40 22 -70t58 -30q37 0 58.5 28.5t20.5 71.5v213q1 41 -20.5 67.5t-58.5 26.5t-58.5 -25t-21.5 -69v-213z" />
<glyph unicode="&#x26;" horiz-adv-x="811" d="M55 195q-4 60 23.5 116t76 107t117.5 98q-34 38 -88 109q-42 59 -46 118t25 103t89.5 72t140.5 28q78 0 132 -35.5t72 -86.5t6.5 -109.5t-54.5 -102.5q-18 -18 -41 -36t-52.5 -38.5t-39.5 -27.5l194 -240q26 69 23 172h115q12 -145 -68 -258l143 -184h-157l-66 84 q-124 -111 -289 -104q-77 5 -127 25.5t-87 72.5q-38 57 -42 117zM187.5 226.5q0.5 -43.5 29.5 -84.5q26 -38 80.5 -50.5t121.5 4t124 60.5l-217 280q-36 -28 -64 -58t-51.5 -69t-23 -82.5zM279.5 795.5q-26.5 -60.5 39.5 -156.5q32 -40 39 -49q62 52 84 78q39 42 44 86.5 t-22.5 73t-76.5 28.5q-81 0 -107.5 -60.5z" />
<glyph unicode="'" horiz-adv-x="401" d="M88 760l80 444h137v-131l-147 -313h-70z" />
<glyph unicode="(" horiz-adv-x="672" d="M174 532q0 282 40.5 448.5t123 239t219.5 72.5q49 0 78 -6v-51q-63 -4 -106 -18.5t-75.5 -49t-51.5 -82t-30.5 -130t-15.5 -179.5t-4 -244q0 -146 4 -245t15.5 -186t30.5 -139t51 -90.5t76 -56t106 -21.5v-51q-19 -4 -78 -4q-202 0 -292.5 186.5t-90.5 606.5z" />
<glyph unicode=")" horiz-adv-x="659" d="M2 -206q62 4 106 21.5t76 56t51 90.5t30.5 139t15.5 186t4 245q0 147 -4 244t-15.5 179.5t-30.5 130t-51.5 82t-75.5 49t-106 18.5v51q29 6 78 6q137 0 219.5 -72.5t123 -239t40.5 -448.5q0 -420 -90.5 -606.5t-292.5 -186.5q-59 0 -78 4v51z" />
<glyph unicode="*" horiz-adv-x="797" d="M63 1196l48 143l231 -98l-20 250h145l-25 -248l238 96l45 -143l-250 -55l172 -189l-119 -86l-136 212l-132 -212l-117 86l166 192z" />
<glyph unicode="+" horiz-adv-x="942" d="M72 464v125h344v344h123v-344h344v-125h-344v-342h-123v342h-344z" />
<glyph unicode="," horiz-adv-x="438" d="M111 -282l76 472h131v-140l-140 -332h-67z" />
<glyph unicode="-" horiz-adv-x="803" d="M100 461v140h588v-140h-588z" />
<glyph unicode="." horiz-adv-x="483" d="M139 0v197h203v-197h-203z" />
<glyph unicode="/" horiz-adv-x="549" d="M3 -261l454 1553h90l-453 -1553h-91z" />
<glyph unicode="0" horiz-adv-x="878" d="M102 348v371q0 170 86 259t248 89t248 -89t86 -259v-371q0 -172 -86.5 -263.5t-247.5 -91.5t-247.5 91.5t-86.5 263.5zM281 326q0 -80 42.5 -138t112.5 -58q74 0 116 56t40 140v417q2 81 -40 133t-116 52q-73 0 -114 -49t-41 -136v-417z" />
<glyph unicode="1" horiz-adv-x="520" d="M73 0v139h122v661h-117v107q43 -1 78 16t54.5 41t33 48t18.5 41l4 17h99v-931h106v-139h-398z" />
<glyph unicode="2" horiz-adv-x="803" d="M74 0q82 129 231 355.5t215 334.5q28 53 28.5 104t-34.5 90t-94 45q-50 5 -84 -12.5t-50 -53.5t-21.5 -74t-4.5 -84h-178q-14 175 81.5 268.5t260.5 93.5q76 0 138 -27t99.5 -76t51.5 -113t-5.5 -144t-72.5 -162q-48 -74 -116.5 -174.5t-112.5 -164.5l-44 -63h361v-143 h-649z" />
<glyph unicode="3" horiz-adv-x="828" d="M98 307h174q-7 -78 26.5 -131t112.5 -53q63 0 106.5 43t43.5 133q0 94 -58.5 145t-152.5 56v106q209 10 209 172q0 50 -14 86t-38 53t-47 24t-49 7q-40 0 -67.5 -15t-42 -42.5t-20.5 -58t-7 -70.5h-176q-12 140 65.5 222.5t245.5 82.5q147 0 232.5 -62.5t85.5 -195.5 q0 -101 -52.5 -166.5t-150.5 -87.5q97 -21 154 -94t57 -170q0 -149 -89.5 -224t-236.5 -75q-94 0 -169.5 36.5t-116.5 110t-25 168.5z" />
<glyph unicode="4" horiz-adv-x="803" d="M16 255l365 806h182l-315 -669h246v190h155v-190h103v-137h-103v-255h-160v255h-473z" />
<glyph unicode="5" horiz-adv-x="875" d="M125 299h172q0 -67 38.5 -117.5t106.5 -50.5q76 0 119 50.5t43 176.5q0 131 -42 195.5t-120 64.5q-51 0 -90.5 -24t-56.5 -72h-168v539h622v-139h-467v-251q20 25 64.5 44.5t107.5 24.5t132 -18q103 -35 144.5 -129t41.5 -244q0 -168 -89.5 -262t-248.5 -94 q-152 0 -233 83t-76 223z" />
<glyph unicode="6" horiz-adv-x="760" d="M61 266q-5 65 8.5 125t59.5 148q25 49 99.5 179.5t135.5 236.5l62 106h192l-280 -469q41 11 98 6q108 -13 181 -92.5t73 -216.5q0 -118 -94 -207t-219 -89q-127 0 -218.5 78t-97.5 195zM211 301q0 -73 45.5 -123t117.5 -50q67 0 115.5 50.5t48.5 122.5q0 71 -49 125.5 t-115 54.5q-71 0 -117 -53.5t-46 -126.5z" />
<glyph unicode="7" horiz-adv-x="764" d="M91 913v148h617l-352 -1061h-191l328 913h-402z" />
<glyph unicode="8" horiz-adv-x="864" d="M69 319q0 88 48.5 161t127.5 116q-127 82 -127 205q0 115 87.5 189.5t224.5 74.5q135 0 222 -75t87 -189q0 -127 -129 -205q81 -42 128.5 -115t47.5 -162q0 -140 -101 -233t-255 -93q-156 0 -258.5 93t-102.5 233zM231 324q0 -91 58 -148.5t141 -57.5q81 0 138.5 57.5 t57.5 148.5q0 89 -58 146.5t-138 57.5q-82 0 -140.5 -57.5t-58.5 -146.5zM274 787q0 -64 43 -105t113 -41q69 0 111 41t42 105q0 63 -42 106t-111 43q-70 0 -113 -43t-43 -106z" />
<glyph unicode="9" horiz-adv-x="764" d="M66 772q0 119 93 206t220 87t217.5 -76.5t97.5 -193.5q3 -66 -10 -126.5t-57 -146.5l-299 -522h-193l283 471q-63 -11 -98 -6q-109 10 -181.5 89.5t-72.5 217.5zM221 760q0 -71 47 -124.5t111 -53.5q66 0 119 55.5t53 125.5q0 72 -46.5 119t-125.5 47q-65 0 -111.5 -49.5 t-46.5 -119.5z" />
<glyph unicode=":" horiz-adv-x="569" d="M190 618v197h203v-197h-203zM192 0v197h203v-197h-203z" />
<glyph unicode=";" horiz-adv-x="569" d="M147 -282l76 472h131v-140l-140 -332h-67zM190 618v197h203v-197h-203z" />
<glyph unicode="&#x3c;" horiz-adv-x="957" d="M52 479v109l817 405v-176l-617 -287l617 -284v-172z" />
<glyph unicode="=" horiz-adv-x="930" d="M122 274v137h698v-137h-698zM122 634v137h698v-137h-698z" />
<glyph unicode="&#x3e;" horiz-adv-x="979" d="M79 74v172l617 284l-617 287v176l817 -405v-109z" />
<glyph unicode="?" horiz-adv-x="795" d="M90 720q-12 169 68 257.5t241 88.5q133 0 215 -75t82 -193q0 -58 -22.5 -104.5t-55 -79t-65 -64t-56.5 -75t-26 -95.5h-101q-8 52 1 97t29 75t45 62t48 58.5t38.5 64.5t15.5 79q0 54 -40.5 94t-101.5 40q-44 0 -75 -12.5t-48.5 -32t-26.5 -51.5t-11.5 -62t-1.5 -72h-152z M323 0h203v197h-203v-197z" />
<glyph unicode="@" horiz-adv-x="1450" d="M39 395q0 111 30.5 213.5t91 189.5t145 151.5t198.5 101t246 36.5q313 0 478.5 -155t168.5 -434q0 -133 -46.5 -248t-124.5 -185.5t-169 -80.5q-107 -11 -167 38t-63 136q-61 -73 -174 -70q-65 1 -112.5 22t-80 68.5t-35.5 123t21 185.5q41 165 122 231.5t211 58.5 q69 -4 104.5 -32.5t48.5 -85.5l22 86h113q-111 -401 -135 -493q-27 -94 4 -138t104 -36q66 6 120.5 70.5t83 158t28.5 191.5q-1 256 -134.5 373.5t-387.5 117.5q-116 0 -223 -43.5t-188 -120t-129 -188.5t-48 -242q0 -78 10.5 -143.5t34 -125t61 -103t91.5 -78.5t126.5 -51 t165 -20.5t207.5 13.5l4 -90q-210 -35 -364.5 -2t-256.5 124t-152 212.5t-50 263.5zM545 451q-34 -137 4.5 -212.5t128.5 -72.5q80 4 117.5 62t81.5 214q33 130 3 192t-118 62q-156 0 -217 -245z" />
<glyph unicode="A" horiz-adv-x="1124" d="M-29 0l504 1278h178l504 -1278h-188l-140 387h-530l-141 -387h-187zM346 518h436l-219 608z" />
<glyph unicode="B" horiz-adv-x="1151" d="M158 0v1278h506q147 0 238 -81.5t91 -209.5t-50 -198t-171 -93q141 -22 202.5 -110.5t61.5 -241.5q0 -344 -389 -344h-489zM322 123h331q110 0 171 63t61 189q0 125 -64.5 189.5t-175.5 64.5h-323v-506zM322 754h294q107 0 166.5 59t59.5 152q0 92 -53.5 145t-163.5 53 h-303v-409z" />
<glyph unicode="C" horiz-adv-x="1178" d="M127 496q-3 64 -3 135t3 149q7 249 129.5 378.5t349.5 129.5q432 0 484 -375h-168q-47 256 -316 256q-289 0 -311 -350q-4 -68 -4 -156.5t4 -197.5q8 -173 86.5 -266t224.5 -93q285 0 322 295h168q-30 -218 -152.5 -314.5t-337.5 -96.5q-230 0 -350 124.5t-129 381.5z " />
<glyph unicode="D" horiz-adv-x="1167" d="M154 0v1278h413q124 0 215 -31.5t146.5 -85t89 -137.5t45.5 -174.5t12 -210.5t-12 -211t-45.5 -175t-89 -137t-146.5 -84.5t-215 -31.5h-413zM324 131h219q57 0 103.5 8.5t81.5 22.5t62.5 38t46 48.5t31.5 62t20 69.5t11 80t5 86t1 93q0 72 -2 118.5t-9.5 106t-22 97.5 t-41 78t-64.5 62.5t-94 37t-129 14.5h-219v-1022z" />
<glyph unicode="E" horiz-adv-x="1022" d="M154 0v1278h774v-133h-604v-395h522v-132h-522v-485h604v-133h-774z" />
<glyph unicode="F" horiz-adv-x="963" d="M139 0v1278h768l-2 -133h-596v-395h496v-132h-496v-618h-170z" />
<glyph unicode="G" horiz-adv-x="1176" d="M111 487q-3 101 -3 176t3 125q10 262 128 388.5t349 126.5q430 0 475 -390h-174q-11 136 -87 207.5t-212 71.5q-150 0 -221 -84t-84 -279q-5 -89 -5 -180t5 -184q11 -173 86 -271t219 -98q157 0 236 100.5t79 268.5v76h-246v127h408v-168q0 -248 -124 -382t-355 -134 q-229 0 -346 125.5t-131 377.5z" />
<glyph unicode="H" horiz-adv-x="1243" d="M147 0v1278h170v-569h596v569h170v-1278h-170v571h-596v-571h-170z" />
<glyph unicode="I" horiz-adv-x="508" d="M174 0v1278h168v-1278h-168z" />
<glyph unicode="J" horiz-adv-x="592" d="M-37 0v133h193q68 0 94 29t26 125v991h170v-991q0 -158 -52.5 -222.5t-164.5 -64.5h-266z" />
<glyph unicode="K" horiz-adv-x="1057" d="M154 0v1278h170v-1278h-170zM327 674l524 604h164l-508 -580l547 -698h-203z" />
<glyph unicode="L" horiz-adv-x="881" d="M154 0v1278h170v-1145h557v-133h-727z" />
<glyph unicode="M" horiz-adv-x="1421" d="M154 0v1278h247l312 -827l313 827h246v-1278h-152v1176l-301 -861h-213l-301 861v-1176h-151z" />
<glyph unicode="N" horiz-adv-x="1241" d="M154 0v1278h239l547 -1120v1120h156v-1278h-232l-553 1143v-1143h-157z" />
<glyph unicode="O" horiz-adv-x="1188" d="M115 496q-2 64 -1.5 135t1.5 149q7 248 131 377.5t352 129.5q227 0 349.5 -129t129.5 -378q2 -78 2 -149t-2 -135q-10 -257 -130.5 -380t-350.5 -123t-350.5 123t-130.5 380zM285 465q6 -173 84 -264.5t227 -91.5t227 91.5t84 264.5q4 110 4 198.5t-4 155.5 q-22 350 -311 350t-311 -350q-4 -68 -4 -156t4 -198z" />
<glyph unicode="P" horiz-adv-x="1051" d="M154 0v1278h370q217 0 330 -93.5t113 -303.5q0 -86 -23.5 -152.5t-63 -110t-97 -71.5t-121 -39.5t-138.5 -11.5h-194v-496h-176zM330 621h176q31 0 55.5 1.5t57 8t57 17t50.5 31t43 48t27.5 69t10.5 93.5t-10.5 93.5t-27 69t-42.5 47t-50.5 30t-57.5 16t-57 7t-56 1.5 h-176v-532z" />
<glyph unicode="Q" horiz-adv-x="1231" d="M127 496q-3 64 -3 135t3 149q8 249 130 378.5t351 129.5q227 0 349.5 -129.5t132.5 -378.5q2 -78 2 -149t-2 -135q-11 -234 -112 -352.5t-296 -137.5q136 -13 207 -33l176 -53l-43 -131q-309 107 -496 176q-3 1 -35 13t-47 18t-43.5 19.5t-52.5 27.5q-206 114 -221 453z M297 465q6 -173 84.5 -266t226.5 -93q147 0 225.5 93t86.5 266q4 109 4 198t-4 156q-24 350 -312 350q-292 0 -311 -350q-5 -73 -5 -161t5 -193z" />
<glyph unicode="R" horiz-adv-x="1065" d="M154 0v1278h356q94 0 170.5 -21t138.5 -65t96.5 -121.5t34.5 -183.5q0 -184 -94.5 -274t-255.5 -105l327 -508h-194l-301 504h-108v-504h-170zM324 616h178q47 0 81.5 4t76.5 20t68.5 44t44.5 80t18 125t-19 125t-45.5 79t-69.5 42.5t-76 18.5t-79 3h-178v-541z" />
<glyph unicode="S" horiz-adv-x="973" d="M70 360h170q0 -64 21 -113.5t56 -78t75.5 -43t84.5 -14.5q115 0 176.5 56.5t61.5 160.5q0 52 -18.5 94.5t-56 77t-81 60.5t-106.5 54q-195 90 -280 174.5t-85 204.5q0 133 111 218t282 85q199 0 304 -101q102 -98 102 -272v-10h-164q0 118 -61.5 192.5t-180.5 74.5 q-95 0 -162 -54t-67 -133q0 -78 60 -133.5t220 -130.5q63 -29 111.5 -56.5t95.5 -65.5t77.5 -80t49.5 -98t19 -120q0 -149 -118 -237t-290 -88q-64 0 -123 13t-112.5 42.5t-91.5 72.5q-38 42 -60 106q-20 59 -20 129v13z" />
<glyph unicode="T" horiz-adv-x="889" d="M18 1145v133h852v-133h-344v-1145h-164l-2 1145h-342z" />
<glyph unicode="U" horiz-adv-x="1167" d="M127 483v795h174v-813q0 -158 69 -247.5t212 -89.5t211.5 89.5t68.5 247.5v813h176v-795q0 -490 -456 -490q-455 0 -455 490z" />
<glyph unicode="V" horiz-adv-x="975" d="M-18 1278h188l313 -1090l316 1090h186l-420 -1278h-162z" />
<glyph unicode="W" horiz-adv-x="1563" d="M-31 1278h178l267 -1098l266 1098h203l268 -1098l266 1098h178l-356 -1278h-178l-279 1100l-278 -1100h-178z" />
<glyph unicode="X" horiz-adv-x="924" d="M2 0l373 639l-373 639h186l275 -520l274 520h187l-371 -639l371 -639h-187l-274 520l-275 -520h-186z" />
<glyph unicode="Y" horiz-adv-x="846" d="M-31 1278h187l266 -612l272 612h183l-373 -729v-549h-162v549z" />
<glyph unicode="Z" horiz-adv-x="956" d="M61 0l582 1145h-558l1 133h803l-584 -1145h559v-133h-803z" />
<glyph unicode="[" horiz-adv-x="569" d="M227 -260v1552h275v-98h-144v-1354h144v-100h-275z" />
<glyph unicode="\" horiz-adv-x="548" d="M2 1292h90l454 -1553h-91z" />
<glyph unicode="]" horiz-adv-x="569" d="M53 -160h144v1354h-144v98h275v-1552h-275v100z" />
<glyph unicode="^" horiz-adv-x="720" d="M36 711l305 355h49l306 -355h-126l-207 247l-195 -247h-132z" />
<glyph unicode="_" horiz-adv-x="1139" d="M0 0v145h1138v-145h-1138z" />
<glyph unicode="`" horiz-adv-x="428" d="M92 760l80 444h137v-131l-147 -313h-70z" />
<glyph unicode="a" horiz-adv-x="956" d="M63 258q0 118 73 190.5t226 106.5q325 69 328 70q0 101 -37.5 141t-128.5 40q-44 0 -141 -7t-173 -13l-75 -7l-8 133q358 25 424 25q76 0 129.5 -18.5t85 -49t49.5 -83t23.5 -107t5.5 -134.5v-545h-154v152q-105 -170 -332 -170q-149 0 -222 76t-73 200zM217 264 q0 -71 39.5 -115.5t122.5 -44.5q151 0 231 75.5t80 180.5v156q-41 -11 -146 -37.5t-138 -34.5q-88 -23 -138.5 -69.5t-50.5 -110.5z" />
<glyph unicode="b" horiz-adv-x="987" d="M133 0v1278h154v-474q83 138 268 138q58 0 108 -12.5t99.5 -46.5t84 -87t56 -140.5t21.5 -200.5q0 -114 -21.5 -199t-56 -134.5t-84.5 -79.5t-98.5 -40t-108.5 -10q-84 0 -158.5 34.5t-109.5 110.5v-137h-154zM283 459q0 -338 241 -338q44 0 77.5 7.5t66 29.5t53.5 58.5 t34 98t13 144.5q0 84 -12.5 147t-34 102t-53.5 63t-66.5 33.5t-77.5 9.5q-109 0 -175 -84t-66 -271z" />
<glyph unicode="c" horiz-adv-x="901" d="M70 475q0 128 28 219.5t82.5 145t126 78t166.5 24.5q169 0 255.5 -67.5t109.5 -221.5h-176q-8 67 -55.5 117.5t-133.5 50.5q-121 0 -179 -81.5t-58 -260.5t58.5 -265t178.5 -86q93 0 140 51t53 126h174q-45 -310 -367 -310q-403 0 -403 480z" />
<glyph unicode="d" horiz-adv-x="1006" d="M76 455q0 113 21.5 200.5t56 140.5t83.5 87t98.5 46.5t106.5 12.5q89 0 156.5 -27.5t114.5 -103.5v467h153v-1278h-153v137q-35 -76 -109.5 -110t-161.5 -34q-59 0 -107 10t-98 39.5t-84 79t-55.5 134.5t-21.5 199zM231 459q0 -103 18.5 -172.5t53.5 -104t75 -48 t95 -13.5q244 0 244 338q0 188 -67 275t-177 87q-53 0 -94.5 -17t-76 -56t-53 -112t-18.5 -177z" />
<glyph unicode="e" horiz-adv-x="936" d="M74 459q0 482 403 482q86 0 153.5 -28.5t120 -89.5t81 -164t28.5 -244h-627q19 -297 244 -297q94 0 147 49t56 120h168q-23 -149 -114 -221.5t-257 -72.5q-95 0 -167 24.5t-126 78t-82 144.5t-28 219zM233 527h463q-11 161 -65.5 225.5t-153.5 64.5q-114 0 -175 -69.5 t-69 -220.5z" />
<glyph unicode="f" horiz-adv-x="588" d="M39 802v127h131v70q0 78 18 135t49.5 87t66.5 43.5t75 13.5h192v-123h-143q-49 0 -77.5 -25t-28.5 -94v-107h198v-127h-196v-802h-154v802h-131z" />
<glyph unicode="g" horiz-adv-x="979" d="M76 471q0 114 20.5 199t53.5 135.5t82 81t97 41t107 10.5q85 0 161 -35t112 -110v135h149v-848q0 -142 -30.5 -220t-95 -110.5t-183.5 -36.5q-43 -1 -84 -1h-58q-66 2 -111 6l-44 3l8 121q19 -2 49.5 -5.5t103.5 -8.5q39 -2 70 -2q27 0 49 2q93 6 134.5 42t44.5 126 l2 149q-48 -77 -121.5 -112t-155.5 -35q-58 0 -107 11.5t-97 43t-81.5 82.5t-54 137t-20.5 199zM231 467q0 -103 18.5 -173.5t53.5 -106t76 -50t96 -14.5q242 0 242 344q0 164 -69 256t-173 92q-111 0 -177.5 -82.5t-66.5 -265.5z" />
<glyph unicode="h" horiz-adv-x="1028" d="M141 0v1278h156v-447q97 105 278 105q114 0 193 -52.5t114.5 -137.5t35.5 -195v-551h-154v565q0 115 -65 180.5t-164 65.5q-101 0 -169.5 -66t-68.5 -180v-565h-156z" />
<glyph unicode="i" horiz-adv-x="451" d="M143 0v928h162v-928h-162zM143 1120v158h162v-158h-162z" />
<glyph unicode="j" horiz-adv-x="457" d="M-59 -246l34 103q50 -28 91 -29h1q40 0 65 41q26 41 26 117v942h153v-938q0 -89 -20 -150t-53.5 -91t-81.5 -37q-19 -3 -39 -3q-30 0 -62 7q-53 11 -114 38zM158 1120v158h153v-158h-153z" />
<glyph unicode="k" horiz-adv-x="848" d="M127 0v1278h154v-797v-481h-154zM283 481l391 447h155l-391 -436l416 -492h-180z" />
<glyph unicode="l" horiz-adv-x="475" d="M145 246v1032h152v-1032q0 -70 20.5 -91.5t65.5 -21.5h74v-133h-115q-43 0 -74 8.5t-61 32.5t-46 75.5t-16 129.5z" />
<glyph unicode="m" horiz-adv-x="1569" d="M131 0v928h154v-107q85 115 258 115q203 0 284 -176q80 176 299 176q160 0 242 -107.5t82 -277.5v-551h-154v565q0 116 -59 181t-152 65q-92 0 -154.5 -66t-62.5 -180v-565h-155v565q0 116 -58 181t-151 65q-94 0 -156.5 -65.5t-62.5 -180.5v-565h-154z" />
<glyph unicode="n" horiz-adv-x="1051" d="M142 0v928h155v-109q85 117 279 117q168 0 255 -107.5t87 -277.5v-551h-154v565q0 115 -65 180.5t-164 65.5q-100 0 -169 -66t-69 -180v-565h-155z" />
<glyph unicode="o" horiz-adv-x="944" d="M102 360q-2 47 -2 99.5t2 109.5q7 181 102.5 276t266.5 95q173 0 269 -95t102 -276q2 -58 2 -110t-2 -99q-19 -367 -371 -367q-353 0 -369 367zM260 356q5 -117 58 -180t153 -63t153 63t58 180q3 58 3 113.5t-3 108.5q-12 239 -211 239q-195 0 -211 -239q-2 -35 -2 -90.5 t2 -131.5z" />
<glyph unicode="p" horiz-adv-x="1028" d="M147 -260v1188h146v-142q35 75 109.5 109.5t158.5 34.5q49 0 90 -7t85 -24t77.5 -50.5t60.5 -82t41.5 -123t14.5 -169.5q0 -114 -21.5 -200.5t-56 -139t-84 -85.5t-99.5 -45t-108 -12q-182 0 -268 142v-394h-146zM295 468q0 -345 242 -345q53 0 93 14.5t74 50.5t52 106.5 t18 173.5q0 84 -12.5 145t-32.5 96.5t-52 56.5t-64.5 28t-75.5 7q-242 0 -242 -333z" />
<glyph unicode="q" horiz-adv-x="1007" d="M86 474q0 113 21.5 198t55 134.5t83.5 80t98.5 40.5t108.5 10q83 0 157.5 -37.5t110.5 -113.5v142h149v-1188h-149v395q-87 -142 -268 -142q-367 0 -367 481zM242 468q0 -103 18 -173.5t52 -106t74 -50t93 -14.5q238 0 238 344q0 181 -65 260.5t-173 79.5 q-43 0 -75.5 -7.5t-64 -29.5t-52 -59t-33 -98.5t-12.5 -145.5z" />
<glyph unicode="r" horiz-adv-x="626" d="M136 0v928h162v-199q28 76 90.5 135.5t143.5 63.5q28 2 50.5 0.5t35.5 -4.5l14 -2l-6 -150l-92 2q-116 -6 -175 -83t-61 -195v-496h-162z" />
<glyph unicode="s" horiz-adv-x="786" d="M72 252h157q5 -67 43 -105.5t102 -38.5q41 0 70 4.5t55.5 16.5t40 37.5t13.5 64.5q0 22 -3 39t-13 32.5t-17.5 24.5t-28.5 22.5t-33 20t-45 23l-51 25.5q-125 66 -161 92q-95 69 -108 169q-3 20 -3 42q0 98 88 160.5t215 62.5q88 0 157 -26t113 -87q42 -58 42 -141v-8 h-144q0 57 -49.5 107t-118.5 50q-73 0 -112 -43.5t-39 -103.5q0 -51 48.5 -88t166.5 -93q52 -24 78 -37t65.5 -39.5t59 -51t34.5 -63t15 -84.5q0 -118 -91.5 -181t-240.5 -63q-134 0 -214.5 68t-90.5 192z" />
<glyph unicode="t" horiz-adv-x="592" d="M51 801v127h139v235h158v-235h158v-127h-158v-557q0 -70 20.5 -91.5t67.5 -21.5h84v-131h-127q-44 0 -76 8.5t-63 32.5t-47.5 75.5t-16.5 129.5v555h-139z" />
<glyph unicode="u" horiz-adv-x="1028" d="M121 362v566h162v-578q0 -117 62.5 -182.5t160.5 -65.5q99 0 164 66t65 182v578h164v-928h-164v101q-78 -109 -270 -109q-171 0 -257.5 102t-86.5 268z" />
<glyph unicode="v" horiz-adv-x="782" d="M-15 928h182l223 -787l221 787h183l-322 -928h-164z" />
<glyph unicode="w" horiz-adv-x="1280" d="M-10 928h178l186 -762l185 762h204l185 -762l186 762h178l-282 -928h-164l-205 801l-205 -801h-164z" />
<glyph unicode="x" horiz-adv-x="739" d="M-6 0l282 489l-282 439h176l195 -361l192 361h178l-284 -439l284 -489h-178l-192 410l-195 -410h-176z" />
<glyph unicode="y" horiz-adv-x="797" d="M-4 928h176l256 -645l205 645h153l-378 -1188h-158l121 362z" />
<glyph unicode="z" horiz-adv-x="670" d="M18 0l409 801h-384v127h616l-408 -801h384v-127h-617z" />
<glyph unicode="{" horiz-adv-x="651" d="M168 498v69q28 0 50 7.5t34 19.5t21 26t12 28.5t4 26.5t1 19l-1 8v250q0 228 90 316t258 63v-45q-50 -3 -87 -15t-61 -36.5t-38.5 -51t-21.5 -70t-9 -81t-2 -96.5v-215q0 -66 -37.5 -121t-118.5 -68q80 -12 118 -67.5t38 -120.5v-215q0 -59 2 -96.5t9 -81t21.5 -70 t38.5 -51t61 -36.5t87 -15v-45q-168 -25 -258 63t-90 316v249q0 3 0.5 8t-0.5 19t-4.5 27t-11.5 28.5t-21 27t-34.5 19t-49.5 7.5z" />
<glyph unicode="|" horiz-adv-x="532" d="M223 -261v1552h82v-1552h-82z" />
<glyph unicode="}" horiz-adv-x="618" d="M2 -221q50 3 87 15t61 36.5t38.5 51t21.5 70t9 81t2 96.5v215q0 65 38 120.5t118 67.5q-81 13 -118.5 68t-37.5 121v215q0 59 -2 96.5t-9 81t-21.5 70t-38.5 51t-61 36.5t-87 15v45q168 25 258 -63t90 -316v-250q2 -1 -0.5 -14t3.5 -33.5t16 -40t37 -33.5t65 -14v-69 q-28 0 -50 -7.5t-34 -19.5t-21 -26.5t-12 -29t-4 -26.5t0 -19v-8v-249q0 -228 -90 -316t-258 -63v45z" />
<glyph unicode="~" horiz-adv-x="553" d="M25 477v98q3 3 17 19t19.5 21.5t19.5 17t25 16t28 9t36 4.5q44 0 81.5 -20t66.5 -40t55 -20q19 0 35.5 4t27.5 8.5t24 15t18.5 16t17.5 19t16 17.5v-99q-4 -5 -15 -18.5t-16.5 -20t-17 -17t-22.5 -15.5t-27 -9t-35 -4q-33 0 -59.5 14t-42 31t-44 31t-63.5 14 q-29 0 -55 -11.5t-36 -20t-32 -34.5z" />
<glyph unicode="&#xa1;" horiz-adv-x="465" d="M136 913v197h203v-197h-203zM139 300l38 409h123l30 -409l4 -300h-191z" />
<glyph unicode="&#xa2;" horiz-adv-x="868" d="M65 475q0 241 91 350.5t260 115.5v149h61v-149q137 -8 209 -75.5t92 -212.5h-164q-6 57 -40.5 104.5t-96.5 59.5v-686q67 11 101.5 59.5t39.5 114.5h162q-40 -291 -303 -308v-124h-61v123q-351 13 -351 479zM219 479q0 -171 48 -256.5t149 -93.5v691q-101 -8 -149 -89.5 t-48 -251.5z" />
<glyph unicode="&#xa3;" horiz-adv-x="645" d="M50 802v127h122v70q0 78 17 135t46 87t61.5 43.5t70.5 13.5h179v-123h-134q-45 0 -71.5 -25t-26.5 -94v-107h184v-127h-182v-678h203v-125h-422v125h75v678h-122z" />
<glyph unicode="&#xa4;" horiz-adv-x="938" d="M82 958l63 62l111 -113q92 68 208.5 65t207.5 -75l104 107l60 -64l-107 -106q62 -90 62 -201t-64 -197l104 -104l-61 -62l-102 103q-87 -69 -200.5 -70t-205.5 64l-110 -109l-60 59l107 109q-74 93 -75.5 210t71.5 210zM227 638q1 -95 66 -165q69 -66 164.5 -67t165.5 65 q67 68 68.5 166t-66.5 168q-68 66 -166 65t-166 -69q-67 -68 -66 -163z" />
<glyph unicode="&#xa5;" horiz-adv-x="852" d="M-31 1278h187l266 -612l272 612h183l-373 -729v-26h219v-109h-219v-124h219v-109h-219v-181h-162v181h-217v109h217v124h-217v109h217v26z" />
<glyph unicode="&#xa6;" horiz-adv-x="301" d="M102 -261v587h82v-587h-82zM102 690v587h82v-587h-82z" />
<glyph unicode="&#xa7;" horiz-adv-x="745" d="M63 1047q-1 64 23 111t68.5 72.5t99.5 37.5t123 12q141 0 228.5 -73.5t84.5 -212.5h-125q3 33 -4 64.5t-25.5 63.5t-59.5 51.5t-99 18.5q-90 -1 -141.5 -39.5t-48.5 -99.5q3 -39 39.5 -83t93 -88.5t117.5 -89t123.5 -101t98.5 -109.5q40 -59 42 -127.5t-43 -130 t-132 -88.5q161 -136 158 -262q-1 -71 -42.5 -124.5t-107 -80.5t-143.5 -27q-146 0 -239.5 92t-83.5 236h149q0 -43 8 -79t27 -69.5t55.5 -53t87.5 -19.5q71 0 105.5 39.5t34.5 87.5q0 52 -42 106.5t-104 104.5t-125 102.5t-114.5 118.5t-63.5 133q-25 184 131 287 q-10 10 -36 33.5t-37.5 34.5t-30.5 32.5t-27.5 37t-15.5 37.5t-7 44zM206.5 593.5q1.5 -25.5 10.5 -45.5q19 -41 104 -124t131 -120q52 20 79 54t27.5 70.5t-13 70.5t-37.5 61q-42 46 -88 86t-67.5 55.5t-69.5 48.5q-30 -19 -48.5 -46.5t-24 -56t-4 -54z" />
<glyph unicode="&#xa8;" horiz-adv-x="557" d="M70 1263q0 32 22.5 54.5t54.5 22.5t55 -22.5t23 -54.5t-23 -55t-55 -23t-54.5 23t-22.5 55zM340 1263q0 32 23 54.5t55 22.5t55 -22.5t23 -54.5t-23 -55t-55 -23t-55 23t-23 55z" />
<glyph unicode="&#xa9;" horiz-adv-x="1706" d="M55 641q0 150 52 276t142 210.5t211.5 132t258.5 47.5t258.5 -47.5t211.5 -132t142.5 -211t52.5 -275.5t-52.5 -275t-142.5 -210.5t-211.5 -131.5t-258.5 -47q-305 0 -484.5 179t-179.5 485zM174 639q0 -256 148.5 -414.5t399.5 -158.5q250 0 394 157.5t144 415.5 q0 257 -146.5 417t-396.5 160t-396.5 -160t-146.5 -417zM426 553q-3 68 0 156q4 143 85 221t220 78q127 0 202 -63t83 -169h-101q-14 86 -54.5 124t-129.5 38q-109 0 -150.5 -55t-50.5 -185q-3 -56 -3 -62t3 -67q5 -130 48.5 -187.5t152.5 -57.5q101 0 141 43.5t50 148.5h98 q-6 -125 -80.5 -193.5t-208.5 -68.5q-140 0 -219.5 76t-85.5 223z" />
<glyph unicode="&#xaa;" horiz-adv-x="645" d="M72 846q0 73 45 118t140 66q33 7 79.5 16.5t77.5 16.5t46 10q0 63 -23 87.5t-79 24.5q-27 0 -87.5 -4.5t-106.5 -8.5l-47 -4l-5 83q221 15 262 15q58 0 95.5 -16t56 -50.5t24.5 -74t6 -101.5v-338h-96v94q-64 -105 -205 -105q-92 0 -137.5 47t-45.5 124zM167 850 q0 -45 24.5 -72.5t76.5 -27.5q93 0 142.5 47t49.5 112v97q-25 -7 -90 -23.5t-86 -21.5q-54 -15 -85.5 -43.5t-31.5 -67.5z" />
<glyph unicode="&#xab;" horiz-adv-x="651" d="M85 765l72 438h122v-129l-131 -309h-63zM326 765l71 438h121v-129l-130 -309h-62z" />
<glyph unicode="&#xac;" horiz-adv-x="1253" d="M51 0v969h531l-99 -97h-329v-778h723v416l104 106v-616h-930zM348 408l637 684l-158 182h402v-443l-176 197l-637 -692z" />
<glyph unicode="&#xad;" horiz-adv-x="803" d="M100 461v140h588v-140h-588z" />
<glyph unicode="&#xae;" horiz-adv-x="1446" d="M55 641q0 150 52 276t142 210.5t211.5 132t258.5 47.5t258.5 -47.5t211.5 -132t142.5 -211t52.5 -275.5t-52.5 -275t-142.5 -210.5t-211.5 -131.5t-258.5 -47t-258.5 47t-211.5 131.5t-142 210t-52 275.5zM174 639q0 -257 146.5 -416.5t396.5 -159.5t396.5 159.5 t146.5 416.5t-146.5 416t-396.5 159t-396.5 -159t-146.5 -416zM494 272v725h243q107 0 172.5 -51.5t65.5 -163.5q0 -82 -41.5 -135.5t-104.5 -64.5l146 -310h-111l-135 301h-135v-301h-100zM594 649h143q16 0 24 0.5t32.5 7t38.5 19t27 41.5t13 69q0 26 -5.5 46.5t-13 34 t-22.5 23t-24.5 14t-30.5 7t-29 3t-30.5 0t-26.5 -0.5h-96v-264z" />
<glyph unicode="&#xb0;" horiz-adv-x="731" d="M84 1001q0 118 84 200.5t203 82.5q118 0 202 -82.5t84 -200.5t-84 -201.5t-202 -83.5q-119 0 -203 83.5t-84 201.5zM168 1001q0 -89 56.5 -148.5t144.5 -59.5q89 0 149 60t60 148q0 89 -60.5 151t-148.5 62t-144.5 -61t-56.5 -152z" />
<glyph unicode="&#xb1;" horiz-adv-x="559" d="M18 512v94h220v203h88v-203h219v-94h-219v-219h-88v219h-220zM25 0v84h510v-84h-510z" />
<glyph unicode="&#xb2;" horiz-adv-x="487" d="M57 686q44 69 127 195t119 187q27 42 11 84.5t-66 47.5q-52 5 -71 -31.5t-17 -92.5h-99q-7 97 45.5 149t143.5 52q71 0 116 -40.5t47 -104.5t-46 -144l-151 -223h200v-79h-359z" />
<glyph unicode="&#xb3;" horiz-adv-x="446" d="M45 855h96q-4 -43 15 -73t63 -30q35 0 59 24t24 74q0 53 -32.5 81.5t-84.5 30.5v59q116 7 116 96q0 53 -25 74t-57 21q-74 0 -76 -104h-98q-7 78 36 124t137 46q82 0 129.5 -35t47.5 -109q0 -116 -113 -141q54 -12 85.5 -52.5t31.5 -94.5q0 -83 -49.5 -124.5 t-131.5 -41.5t-134.5 48t-38.5 127z" />
<glyph unicode="&#xb4;" horiz-adv-x="549" d="M94 1149l262 203h162l-311 -203h-113z" />
<glyph unicode="&#xb5;" d="M121 928h157v-578q0 -116 64.5 -182t163.5 -66t164 66t65 182v578h164v-928h-164v101q-78 -109 -270 -109q-59 0 -113.5 27.5t-79.5 70.5v-350h-150z" />
<glyph unicode="&#xb6;" horiz-adv-x="915" d="M53 944q0 137 87 216t229 79h518v-121h-123v-1118h-107v1118h-168v-1118h-92v649h-28q-142 0 -229 79t-87 216z" />
<glyph unicode="&#xb7;" horiz-adv-x="569" d="M184 430v197h203v-197h-203z" />
<glyph unicode="&#xb8;" horiz-adv-x="426" d="M84.5 -99q-2.5 19 2.5 39t20 36.5t36 23.5q-26 -40 -12.5 -62t57.5 -22h121q56 0 85 -57q29 -58 3 -116q-38 -75 -139 -77h-111v64h97q64 0 82 45q15 36 -12 63q-18 19 -48 19h-123q-25 0 -40.5 12.5t-18 31.5z" />
<glyph unicode="&#xb9;" horiz-adv-x="393" d="M88 684v77h68v368h-65v59q38 0 64 22.5t33 45.5l8 23h55v-518h60v-77h-223z" />
<glyph unicode="&#xba;" horiz-adv-x="642" d="M89 916q-3 59 0 131q4 113 63.5 172t166.5 59t167 -59.5t64 -171.5q2 -72 0 -131q-12 -228 -231 -228q-221 0 -230 228zM187 914q3 -73 36 -112.5t96 -39.5q62 0 95 39.5t36 112.5q5 72 0 138q-8 149 -131 149t-132 -149q-2 -43 0 -138z" />
<glyph unicode="&#xbb;" horiz-adv-x="653" d="M85 765l72 438h122v-129l-131 -309h-63zM326 765l71 438h121v-129l-130 -309h-62z" />
<glyph unicode="&#xbc;" horiz-adv-x="1409" d="M157 574v92h80v437h-77v70q28 0 51 11t36 27t21.5 32t11.5 27l3 11h65v-615h70v-92h-261zM376 -261h96l477 1539h-95zM810 170l242 535h121l-209 -444h163v126h103v-126h69v-91h-69v-170h-106v170h-314z" />
<glyph unicode="&#xbd;" horiz-adv-x="1413" d="M157 577v92h80v437h-77v70q28 0 51 11t36 27t21.5 32t11.5 27l3 11h65v-615h70v-92h-261zM335 -261h95l471 1539h-94zM811 0q58 92 155 239.5t139 216.5q31 49 12 100t-78 57q-33 4 -55.5 -8t-33 -35.5t-14.5 -48.5t-3 -55h-117q-9 115 54 177t171 62q84 0 137.5 -48 t56 -125t-54.5 -172l-179 -266h237v-94h-427z" />
<glyph unicode="&#xbe;" horiz-adv-x="1413" d="M120 783h115q-5 -52 17 -87t74 -35q42 0 71 28.5t29 87.5q0 62 -38.5 96t-101.5 37v70q138 5 138 113q0 63 -29.5 87.5t-68.5 24.5q-88 0 -90 -122h-116q-8 92 43 146.5t162 54.5q97 0 153.5 -41.5t56.5 -128.5q0 -67 -34.5 -110.5t-99.5 -57.5q64 -14 101.5 -62 t37.5 -112q0 -98 -59 -147.5t-156 -49.5q-96 0 -158.5 57t-46.5 151zM414 -261h91l452 1539h-90zM820 169l241 532h121l-209 -442h163v126h102v-126h69v-90h-69v-169h-105v169h-313z" />
<glyph unicode="&#xbf;" horiz-adv-x="752" d="M77 259q0 58 22.5 104.5t55 79t65 64t56.5 75t26 95.5h101q8 -52 -1 -97t-29 -75t-45 -62t-48 -58.5t-38.5 -64.5t-15.5 -79q0 -54 40.5 -94t101.5 -40q44 0 75 12.5t48.5 32t26.5 51.5t11.5 62t1.5 72h152q12 -169 -68 -257.5t-241 -88.5q-133 0 -215 75t-82 193z M256 864v197h203v-197h-203z" />
<glyph unicode="&#xc0;" horiz-adv-x="1163" d="M-13 0l504 1278h178l504 -1278h-188l-140 387h-530l-141 -387h-187zM344 1581h162l262 -203h-113zM362 518h436l-219 608z" />
<glyph unicode="&#xc1;" horiz-adv-x="1176" d="M-29 0l504 1278h178l504 -1278h-188l-140 387h-530l-141 -387h-187zM346 518h436l-219 608zM391 1378l262 203h162l-311 -203h-113z" />
<glyph unicode="&#xc2;" horiz-adv-x="1153" d="M-29 0l504 1278h178l504 -1278h-188l-140 387h-530l-141 -387h-187zM346 518h436l-219 608zM358 1444l221 203h27l200 -203h-90l-123 160l-143 -160h-92z" />
<glyph unicode="&#xc3;" horiz-adv-x="1161" d="M-29 0l504 1278h178l504 -1278h-188l-140 387h-530l-141 -387h-187zM346 518h436l-219 608zM377 1438v72q4 4 18.5 21t23 25t23.5 19.5t31.5 17t34.5 5.5q37 0 68 -18.5t55.5 -37t46.5 -18.5q18 0 34 3.5t30.5 11.5t22.5 13t21.5 16t16.5 13v-63q-17 -22 -28 -34.5 t-37 -27t-56 -14.5q-27 0 -49.5 11t-35.5 25t-36.5 25t-52.5 11q-31 0 -56.5 -14t-47.5 -36.5t-27 -25.5z" />
<glyph unicode="&#xc4;" horiz-adv-x="1153" d="M-29 0l504 1278h178l504 -1278h-188l-140 387h-530l-141 -387h-187zM346 518h436l-219 608zM365 1494q0 32 22.5 54.5t54.5 22.5t55 -22.5t23 -54.5t-23 -55t-55 -23t-54.5 23t-22.5 55zM635 1494q0 32 23 54.5t55 22.5t55 -22.5t23 -54.5t-23 -55t-55 -23t-55 23t-23 55 z" />
<glyph unicode="&#xc5;" horiz-adv-x="1153" d="M-29 0l504 1278h178l504 -1278h-188l-140 387h-530l-141 -387h-187zM346 518h436l-219 608zM366 1455q0 82 59 140.5t141 58.5t140.5 -58.5t58.5 -140.5q0 -58 -31 -107t-81 -70h-178q-49 25 -79 72.5t-30 104.5zM429 1455q0 -56 40.5 -96.5t96.5 -40.5q57 0 97.5 40.5 t40.5 96.5q0 57 -40.5 97.5t-97.5 40.5q-56 0 -96.5 -40.5t-40.5 -97.5z" />
<glyph unicode="&#xc6;" horiz-adv-x="1323" d="M-92 0l608 1278h103v-81l-330 -742h330v-131h-385l-146 -324h-180zM619 0v1278h618v-133h-482v-395h416v-132h-416v-485h482v-133h-618z" />
<glyph unicode="&#xc7;" horiz-adv-x="1206" d="M127 496q-6 127 0 284q7 249 129.5 378.5t349.5 129.5q432 0 484 -375h-168q-47 256 -316 256q-289 0 -311 -350q-8 -135 0 -354q8 -173 86.5 -266t224.5 -93q285 0 322 295h168q-30 -218 -152.5 -314.5t-337.5 -96.5q-230 0 -350 124.5t-129 381.5zM437.5 -101 q-2.5 19 2.5 39t20 36.5t36 23.5q-26 -40 -12.5 -62t57.5 -22h121q56 0 85 -57q29 -58 3 -116q-38 -75 -139 -77h-111v64h97q64 0 82 45q15 36 -12 63q-18 19 -48 19h-123q-25 0 -40.5 12.5t-18 31.5z" />
<glyph unicode="&#xc8;" horiz-adv-x="1063" d="M154 0v1278h774v-133h-604v-395h522v-132h-522v-485h604v-133h-774zM324 1581h162l262 -203h-113z" />
<glyph unicode="&#xc9;" horiz-adv-x="1051" d="M154 0v1278h774v-133h-604v-395h522v-132h-522v-485h604v-133h-774zM391 1378l262 203h162l-311 -203h-113z" />
<glyph unicode="&#xca;" horiz-adv-x="1057" d="M154 0v1278h774v-133h-604v-395h522v-132h-522v-485h604v-133h-774zM303 1444l221 203h27l200 -203h-90l-123 160l-143 -160h-92z" />
<glyph unicode="&#xcb;" horiz-adv-x="1073" d="M154 0v1278h774v-133h-604v-395h522v-132h-522v-485h604v-133h-774zM349 1494q0 32 22.5 54.5t54.5 22.5t55 -22.5t23 -54.5t-23 -55t-55 -23t-54.5 23t-22.5 55zM619 1494q0 32 23 54.5t55 22.5t55 -22.5t23 -54.5t-23 -55t-55 -23t-55 23t-23 55z" />
<glyph unicode="&#xcc;" horiz-adv-x="496" d="M17 1581h162l262 -203h-113zM174 0v1278h168v-1278h-168z" />
<glyph unicode="&#xcd;" horiz-adv-x="500" d="M43 1378l262 203h162l-311 -203h-113zM174 0v1278h168v-1278h-168z" />
<glyph unicode="&#xce;" horiz-adv-x="500" d="M33 1444l221 203h27l200 -203h-90l-123 160l-143 -160h-92zM174 0v1278h168v-1278h-168z" />
<glyph unicode="&#xcf;" horiz-adv-x="483" d="M47 1494q0 32 22.5 54.5t54.5 22.5t55 -22.5t23 -54.5t-23 -55t-55 -23t-54.5 23t-22.5 55zM174 0v1278h168v-1278h-168zM317 1494q0 32 23 54.5t55 22.5t55 -22.5t23 -54.5t-23 -55t-55 -23t-55 23t-23 55z" />
<glyph unicode="&#xd0;" horiz-adv-x="1227" d="M4 578v140h234v560h380q114 0 197.5 -31.5t134.5 -85t82 -137.5t42 -174.5t11 -210.5t-11 -211t-41.5 -175t-82 -137t-135 -84.5t-197.5 -31.5h-380v578h-234zM394 131h202q67 0 118.5 14t86.5 36t59.5 61.5t37.5 76t20.5 96t9 106t1.5 118.5q0 55 -1 92.5t-4.5 86 t-10 81t-18.5 70.5t-29 63t-42 50t-57.5 39t-75.5 23t-95 9h-202v-435h198v-140h-198v-447z" />
<glyph unicode="&#xd1;" horiz-adv-x="1266" d="M154 0v1278h239l547 -1120v1120h156v-1278h-232l-553 1143v-1143h-157zM414 1468v72q4 4 18.5 21t23 25t23.5 19.5t31.5 17t34.5 5.5q37 0 68 -18.5t55.5 -37t46.5 -18.5q18 0 34 3.5t30.5 11.5t22.5 13t21.5 16t16.5 13v-63q-17 -22 -28 -34.5t-37 -27t-56 -14.5 q-27 0 -49.5 11t-35.5 25t-36.5 25t-52.5 11q-31 0 -56.5 -14t-47.5 -36.5t-27 -25.5z" />
<glyph unicode="&#xd2;" horiz-adv-x="1202" d="M115 496q-3 127 0 284q7 248 131 377.5t352 129.5q227 0 349.5 -129t129.5 -378q3 -157 0 -284q-10 -257 -130.5 -380t-350.5 -123t-350.5 123t-130.5 380zM285 465q6 -173 84 -264.5t227 -91.5t227 91.5t84 264.5q8 219 0 354q-22 350 -311 350t-311 -350 q-8 -135 0 -354zM346 1581h162l262 -203h-113z" />
<glyph unicode="&#xd3;" horiz-adv-x="1190" d="M115 496q-3 127 0 284q7 248 131 377.5t352 129.5q227 0 349.5 -129t129.5 -378q3 -157 0 -284q-10 -257 -130.5 -380t-350.5 -123t-350.5 123t-130.5 380zM285 465q6 -173 84 -264.5t227 -91.5t227 91.5t84 264.5q8 219 0 354q-22 350 -311 350t-311 -350 q-8 -135 0 -354zM385 1378l262 203h162l-311 -203h-113z" />
<glyph unicode="&#xd4;" horiz-adv-x="1190" d="M115 496q-3 127 0 284q7 248 131 377.5t352 129.5q227 0 349.5 -129t129.5 -378q3 -157 0 -284q-10 -257 -130.5 -380t-350.5 -123t-350.5 123t-130.5 380zM285 465q6 -173 84 -264.5t227 -91.5t227 91.5t84 264.5q8 219 0 354q-22 350 -311 350t-311 -350 q-8 -135 0 -354zM371 1444l221 203h27l200 -203h-90l-123 160l-143 -160h-92z" />
<glyph unicode="&#xd5;" horiz-adv-x="1194" d="M115 496q-3 127 0 284q7 248 131 377.5t352 129.5q227 0 349.5 -129t129.5 -378q3 -157 0 -284q-10 -257 -130.5 -380t-350.5 -123t-350.5 123t-130.5 380zM285 465q6 -173 84 -264.5t227 -91.5t227 91.5t84 264.5q8 219 0 354q-22 350 -311 350t-311 -350 q-8 -135 0 -354zM389 1468v72q4 4 18.5 21t23 25t23.5 19.5t31.5 17t34.5 5.5q37 0 68 -18.5t55.5 -37t46.5 -18.5q18 0 34 3.5t30.5 11.5t22.5 13t21.5 16t16.5 13v-63q-17 -22 -28 -34.5t-37 -27t-56 -14.5q-27 0 -49.5 11t-35.5 25t-36.5 25t-52.5 11q-31 0 -56.5 -14 t-47.5 -36.5t-27 -25.5z" />
<glyph unicode="&#xd6;" horiz-adv-x="1190" d="M115 496q-3 127 0 284q7 248 131 377.5t352 129.5q227 0 349.5 -129t129.5 -378q3 -157 0 -284q-10 -257 -130.5 -380t-350.5 -123t-350.5 123t-130.5 380zM285 465q6 -173 84 -264.5t227 -91.5t227 91.5t84 264.5q8 219 0 354q-22 350 -311 350t-311 -350 q-8 -135 0 -354zM389 1494q0 32 22.5 54.5t54.5 22.5t55 -22.5t23 -54.5t-23 -55t-55 -23t-54.5 23t-22.5 55zM659 1494q0 32 23 54.5t55 22.5t55 -22.5t23 -54.5t-23 -55t-55 -23t-55 23t-23 55z" />
<glyph unicode="&#xd7;" horiz-adv-x="768" d="M96 321l209 208l-209 209l80 80l209 -209l209 209l80 -80l-209 -209l209 -208l-80 -80l-209 208l-209 -208z" />
<glyph unicode="&#xd8;" horiz-adv-x="1124" d="M82 496q-3 127 0 284q7 248 131 377.5t352 129.5q129 0 230 -45l49 110l71 -29l-53 -120q173 -124 182 -423q3 -157 0 -284q-10 -257 -130.5 -380t-350.5 -123q-127 0 -219 37l-68 -155l-71 31l70 159q-181 117 -193 431zM252 465q6 -175 83 -264l406 919q-70 49 -178 49 q-289 0 -311 -350q-8 -135 0 -354zM397 149q69 -40 166 -40q149 0 227 91.5t84 264.5q8 219 0 354q-11 157 -74 244z" />
<glyph unicode="&#xd9;" horiz-adv-x="1245" d="M127 483v795h174v-813q0 -158 69 -247.5t212 -89.5t211.5 89.5t68.5 247.5v813h176v-795q0 -490 -456 -490q-455 0 -455 490zM312 1581h162l262 -203h-113z" />
<glyph unicode="&#xda;" horiz-adv-x="1233" d="M127 483v795h174v-813q0 -158 69 -247.5t212 -89.5t211.5 89.5t68.5 247.5v813h176v-795q0 -490 -456 -490q-455 0 -455 490zM483 1378l262 203h162l-311 -203h-113z" />
<glyph unicode="&#xdb;" horiz-adv-x="1237" d="M127 483v795h174v-813q0 -158 69 -247.5t212 -89.5t211.5 89.5t68.5 247.5v813h176v-795q0 -490 -456 -490q-455 0 -455 490zM353 1444l221 203h27l200 -203h-90l-123 160l-143 -160h-92z" />
<glyph unicode="&#xdc;" horiz-adv-x="1237" d="M127 483v795h174v-813q0 -158 69 -247.5t212 -89.5t211.5 89.5t68.5 247.5v813h176v-795q0 -490 -456 -490q-455 0 -455 490zM365 1494q0 32 22.5 54.5t54.5 22.5t55 -22.5t23 -54.5t-23 -55t-55 -23t-54.5 23t-22.5 55zM635 1494q0 32 23 54.5t55 22.5t55 -22.5 t23 -54.5t-23 -55t-55 -23t-55 23t-23 55z" />
<glyph unicode="&#xdd;" horiz-adv-x="811" d="M-52 1278h187l266 -612l272 612h183l-373 -729v-549h-162v549zM272 1378l262 203h162l-311 -203h-113z" />
<glyph unicode="&#xde;" horiz-adv-x="889" d="M99 -260v1535h154v-317q87 107 234 107q173 0 269 -95t102 -276q2 -53 2 -172t-2 -162q-19 -367 -371 -367q-148 0 -234 103v-356h-154zM276 356q5 -117 58 -180t153 -63t153 63t58 180q3 55 3 175.5t-3 171.5q-12 239 -211 239q-195 0 -211 -239q-6 -109 0 -347z" />
<glyph unicode="&#xdf;" horiz-adv-x="1083" d="M135 0v895q0 174 103 278.5t280 104.5q180 0 284.5 -76.5t104.5 -210.5q0 -71 -31.5 -117t-76.5 -66t-89.5 -35t-76 -38t-31.5 -61q0 -34 31.5 -59.5t81 -46t102.5 -45t103 -70t75 -107.5q15 -36 16 -75.5t-10 -78t-38.5 -73t-67 -61.5t-99 -42.5t-130.5 -15.5h-111v113 h51q176 0 232.5 57t25.5 149q-15 46 -60 83t-97.5 62t-103.5 52t-84.5 66t-33.5 90q5 50 28 86.5t54 55.5t66 38.5t64.5 35t49 44.5t19.5 69q0 94 -63 136.5t-187 44.5q-99 2 -167 -76.5t-68 -210.5l2 -895h-148z" />
<glyph unicode="&#xe0;" horiz-adv-x="954" d="M63 258q0 118 73 190.5t226 106.5q325 69 328 70q0 101 -37.5 141t-128.5 40q-44 0 -141 -7t-173 -13l-75 -7l-8 133q358 25 424 25q76 0 129.5 -18.5t85 -49t49.5 -83t23.5 -107t5.5 -134.5v-545h-154v152q-105 -170 -332 -170q-149 0 -222 76t-73 200zM217 264 q0 -71 39.5 -115.5t122.5 -44.5q151 0 231 75.5t80 180.5v156q-41 -11 -146 -37.5t-138 -34.5q-88 -23 -138.5 -69.5t-50.5 -110.5zM238 1253h162l262 -203h-113z" />
<glyph unicode="&#xe1;" d="M63 258q0 118 73 190.5t226 106.5q325 69 328 70q0 101 -37.5 141t-128.5 40q-44 0 -141 -7t-173 -13l-75 -7l-8 133q358 25 424 25q76 0 129.5 -18.5t85 -49t49.5 -83t23.5 -107t5.5 -134.5v-545h-154v152q-105 -170 -332 -170q-149 0 -222 76t-73 200zM217 264 q0 -71 39.5 -115.5t122.5 -44.5q151 0 231 75.5t80 180.5v156q-41 -11 -146 -37.5t-138 -34.5q-88 -23 -138.5 -69.5t-50.5 -110.5zM309 1049l262 203h162l-311 -203h-113z" />
<glyph unicode="&#xe2;" horiz-adv-x="932" d="M63 258q0 118 73 190.5t226 106.5q325 69 328 70q0 101 -37.5 141t-128.5 40q-44 0 -141 -7t-173 -13l-75 -7l-8 133q358 25 424 25q76 0 129.5 -18.5t85 -49t49.5 -83t23.5 -107t5.5 -134.5v-545h-154v152q-105 -170 -332 -170q-149 0 -222 76t-73 200zM217 264 q0 -71 39.5 -115.5t122.5 -44.5q151 0 231 75.5t80 180.5v156q-41 -11 -146 -37.5t-138 -34.5q-88 -23 -138.5 -69.5t-50.5 -110.5zM242 1094l221 203h27l200 -203h-90l-123 160l-143 -160h-92z" />
<glyph unicode="&#xe3;" d="M63 258q0 118 73 190.5t226 106.5q325 69 328 70q0 101 -37.5 141t-128.5 40q-44 0 -141 -7t-173 -13l-75 -7l-8 133q358 25 424 25q76 0 129.5 -18.5t85 -49t49.5 -83t23.5 -107t5.5 -134.5v-545h-154v152q-105 -170 -332 -170q-149 0 -222 76t-73 200zM217 264 q0 -71 39.5 -115.5t122.5 -44.5q151 0 231 75.5t80 180.5v156q-41 -11 -146 -37.5t-138 -34.5q-88 -23 -138.5 -69.5t-50.5 -110.5zM262 1094v72q4 4 18.5 21t23 25t23.5 19.5t31.5 17t34.5 5.5q37 0 68 -18.5t55.5 -37t46.5 -18.5q18 0 34 3.5t30.5 11.5t22.5 13t21.5 16 t16.5 13v-63q-17 -22 -28 -34.5t-37 -27t-56 -14.5q-27 0 -49.5 11t-35.5 25t-36.5 25t-52.5 11q-31 0 -56.5 -14t-47.5 -36.5t-27 -25.5z" />
<glyph unicode="&#xe4;" horiz-adv-x="932" d="M63 258q0 118 73 190.5t226 106.5q325 69 328 70q0 101 -37.5 141t-128.5 40q-44 0 -141 -7t-173 -13l-75 -7l-8 133q358 25 424 25q76 0 129.5 -18.5t85 -49t49.5 -83t23.5 -107t5.5 -134.5v-545h-154v152q-105 -170 -332 -170q-149 0 -222 76t-73 200zM217 264 q0 -71 39.5 -115.5t122.5 -44.5q151 0 231 75.5t80 180.5v156q-41 -11 -146 -37.5t-138 -34.5q-88 -23 -138.5 -69.5t-50.5 -110.5zM265 1169q0 32 22.5 54.5t54.5 22.5t55 -22.5t23 -54.5t-23 -55t-55 -23t-54.5 23t-22.5 55zM535 1169q0 32 23 54.5t55 22.5t55 -22.5 t23 -54.5t-23 -55t-55 -23t-55 23t-23 55z" />
<glyph unicode="&#xe5;" horiz-adv-x="944" d="M63 258q0 118 73 190.5t226 106.5q325 69 328 70q0 101 -37.5 141t-128.5 40q-44 0 -141 -7t-173 -13l-75 -7l-8 133q358 25 424 25q76 0 129.5 -18.5t85 -49t49.5 -83t23.5 -107t5.5 -134.5v-545h-154v152q-105 -170 -332 -170q-149 0 -222 76t-73 200zM217 264 q0 -71 39.5 -115.5t122.5 -44.5q151 0 231 75.5t80 180.5v156q-41 -11 -146 -37.5t-138 -34.5q-88 -23 -138.5 -69.5t-50.5 -110.5zM293 1280q0 82 59 140.5t142 58.5q81 0 139.5 -58.5t58.5 -140.5t-58.5 -141t-139.5 -59q-83 0 -142 58.5t-59 141.5zM357 1280 q0 -56 40 -96.5t97 -40.5t97 40.5t40 96.5q0 57 -40 97.5t-97 40.5t-97 -40.5t-40 -97.5z" />
<glyph unicode="&#xe6;" horiz-adv-x="1501" d="M79 258q0 118 68.5 190.5t212.5 106.5q66 15 175 37.5t134 28.5q0 102 -36 143.5t-120 41.5q-41 0 -132.5 -7t-162.5 -13l-71 -7l-8 133q337 25 399 25q93 0 147.5 -32.5t82.5 -107.5q40 75 115 112.5t168 37.5q359 0 359 -521h-588q19 -307 229 -307q89 0 138.5 49 t51.5 121h158q-22 -150 -107 -223t-241 -73q-79 0 -168.5 48t-143.5 136q-17 -52 -60.5 -91.5t-99.5 -61t-112 -32t-110 -10.5q-140 0 -209 76t-69 200zM224 264q0 -71 37 -115.5t115 -44.5q142 0 217.5 75.5t75.5 180.5v152q-212 -53 -267 -68q-83 -23 -130.5 -69.5 t-47.5 -110.5zM822 533h434q-7 111 -35 177t-68.5 90.5t-101.5 24.5q-107 0 -164 -70t-65 -222z" />
<glyph unicode="&#xe7;" horiz-adv-x="961" d="M70 475q0 128 28 219.5t82.5 145t126 78t166.5 24.5q169 0 255.5 -67.5t109.5 -221.5h-176q-8 67 -55.5 117.5t-133.5 50.5q-121 0 -179 -81.5t-58 -260.5t58.5 -265t178.5 -86q93 0 140 51t53 126h174q-45 -310 -367 -310q-403 0 -403 480zM327.5 -98q-2.5 19 2.5 39 t20 36.5t36 23.5q-26 -40 -12.5 -62t57.5 -22h121q56 0 85 -57q29 -58 3 -116q-38 -75 -139 -77h-111v64h97q64 0 82 45q15 36 -12 63q-18 19 -48 19h-123q-25 0 -40.5 12.5t-18 31.5z" />
<glyph unicode="&#xe8;" horiz-adv-x="952" d="M74 459q0 482 403 482q86 0 153.5 -28.5t120 -89.5t81 -164t28.5 -244h-627q19 -297 244 -297q94 0 147 49t56 120h168q-23 -149 -114 -221.5t-257 -72.5q-95 0 -167 24.5t-126 78t-82 144.5t-28 219zM229 1262h162l262 -203h-113zM233 527h463q-11 161 -65.5 225.5 t-153.5 64.5q-114 0 -175 -69.5t-69 -220.5z" />
<glyph unicode="&#xe9;" horiz-adv-x="963" d="M74 459q0 482 403 482q86 0 153.5 -28.5t120 -89.5t81 -164t28.5 -244h-627q19 -297 244 -297q94 0 147 49t56 120h168q-23 -149 -114 -221.5t-257 -72.5q-95 0 -167 24.5t-126 78t-82 144.5t-28 219zM233 527h463q-11 161 -65.5 225.5t-153.5 64.5q-114 0 -175 -69.5 t-69 -220.5zM319 1059l262 203h162l-311 -203h-113z" />
<glyph unicode="&#xea;" d="M74 459q0 482 403 482q86 0 153.5 -28.5t120 -89.5t81 -164t28.5 -244h-627q19 -297 244 -297q94 0 147 49t56 120h168q-23 -149 -114 -221.5t-257 -72.5q-95 0 -167 24.5t-126 78t-82 144.5t-28 219zM233 527h463q-11 161 -65.5 225.5t-153.5 64.5q-114 0 -175 -69.5 t-69 -220.5zM234 1073l221 203h27l200 -203h-90l-123 160l-143 -160h-92z" />
<glyph unicode="&#xeb;" d="M74 459q0 482 403 482q86 0 153.5 -28.5t120 -89.5t81 -164t28.5 -244h-627q19 -297 244 -297q94 0 147 49t56 120h168q-23 -149 -114 -221.5t-257 -72.5q-95 0 -167 24.5t-126 78t-82 144.5t-28 219zM233 527h463q-11 161 -65.5 225.5t-153.5 64.5q-114 0 -175 -69.5 t-69 -220.5zM272 1159q0 32 22.5 54.5t54.5 22.5t55 -22.5t23 -54.5t-23 -55t-55 -23t-54.5 23t-22.5 55zM542 1159q0 32 23 54.5t55 22.5t55 -22.5t23 -54.5t-23 -55t-55 -23t-55 23t-23 55z" />
<glyph unicode="&#xec;" horiz-adv-x="391" d="M-26 1270h162l262 -203h-113zM154 0v934h168v-934h-168z" />
<glyph unicode="&#xed;" horiz-adv-x="391" d="M-2 1060l262 203h162l-311 -203h-113zM154 0v934h168v-934h-168z" />
<glyph unicode="&#xee;" horiz-adv-x="391" d="M-22 1077l221 203h27l200 -203h-90l-123 160l-143 -160h-92zM154 0v934h168v-934h-168z" />
<glyph unicode="&#xef;" horiz-adv-x="391" d="M-2 1174q0 32 22.5 54.5t54.5 22.5t55 -22.5t23 -54.5t-23 -55t-55 -23t-54.5 23t-22.5 55zM154 0v934h168v-934h-168zM268 1174q0 32 23 54.5t55 22.5t55 -22.5t23 -54.5t-23 -55t-55 -23t-55 23t-23 55z" />
<glyph unicode="&#xf0;" horiz-adv-x="760" d="M70 299q0 138 72.5 217.5t181.5 89.5q35 5 98 -6l-101 179l-181 -92l-40 66l180 93l-114 188l146 57l103 -182l208 83l34 -59l-201 -90q33 -58 97.5 -164.5t77.5 -129.5q44 -86 57 -146.5t10 -126.5q-7 -117 -97.5 -193.5t-217.5 -76.5t-220 87t-93 206zM225 311 q0 -70 46.5 -119.5t111.5 -49.5q79 0 125.5 47t46.5 119q0 70 -53 125.5t-119 55.5q-64 0 -111 -53.5t-47 -124.5z" />
<glyph unicode="&#xf1;" horiz-adv-x="1030" d="M142 0v928h155v-109q85 117 279 117q168 0 255 -107.5t87 -277.5v-551h-154v565q0 115 -65 180.5t-164 65.5q-100 0 -169 -66t-69 -180v-565h-155zM336 1079v72q4 4 18.5 21t23 25t23.5 19.5t31.5 17t34.5 5.5q37 0 68 -18.5t55.5 -37t46.5 -18.5q18 0 34 3.5t30.5 11.5 t22.5 13t21.5 16t16.5 13v-63q-17 -22 -28 -34.5t-37 -27t-56 -14.5q-27 0 -49.5 11.5t-35.5 24.5t-36.5 24.5t-52.5 11.5q-31 0 -56.5 -14t-47.5 -36.5t-27 -25.5z" />
<glyph unicode="&#xf2;" d="M108 360q-3 94 0 209q7 181 102.5 276t266.5 95q173 0 269 -95t102 -276q3 -115 0 -209q-19 -367 -371 -367q-353 0 -369 367zM236 1246h162l262 -203h-113zM266 356q5 -117 58 -180t153 -63t153 63t58 180q6 116 0 222q-12 239 -211 239q-195 0 -211 -239q-4 -70 0 -222 z" />
<glyph unicode="&#xf3;" d="M108 360q-3 94 0 209q7 181 102.5 276t266.5 95q173 0 269 -95t102 -276q3 -115 0 -209q-19 -367 -371 -367q-353 0 -369 367zM266 356q5 -117 58 -180t153 -63t153 63t58 180q6 116 0 222q-12 239 -211 239q-195 0 -211 -239q-4 -70 0 -222zM289 1033l262 203h162 l-311 -203h-113z" />
<glyph unicode="&#xf4;" horiz-adv-x="956" d="M108 360q-3 94 0 209q7 181 102.5 276t266.5 95q173 0 269 -95t102 -276q3 -115 0 -209q-19 -367 -371 -367q-353 0 -369 367zM263 1054l221 203h27l200 -203h-90l-123 160l-143 -160h-92zM266 356q5 -117 58 -180t153 -63t153 63t58 180q6 116 0 222q-12 239 -211 239 q-195 0 -211 -239q-4 -70 0 -222z" />
<glyph unicode="&#xf5;" horiz-adv-x="956" d="M108 360q-3 94 0 209q7 181 102.5 276t266.5 95q173 0 269 -95t102 -276q3 -115 0 -209q-19 -367 -371 -367q-353 0 -369 367zM266 356q5 -117 58 -180t153 -63t153 63t58 180q6 116 0 222q-12 239 -211 239q-195 0 -211 -239q-4 -70 0 -222zM283 1069v72q4 4 18.5 21 t23 25t23.5 19.5t31.5 17t34.5 5.5q37 0 68 -18.5t55.5 -37t46.5 -18.5q18 0 34 3.5t30.5 11.5t22.5 13t21.5 16t16.5 13v-63q-17 -22 -28 -34.5t-37 -27t-56 -14.5q-27 0 -49.5 11.5t-35.5 24.5t-36.5 24.5t-52.5 11.5q-31 0 -56.5 -14t-47.5 -36.5t-27 -25.5z" />
<glyph unicode="&#xf6;" horiz-adv-x="944" d="M108 360q-3 94 0 209q7 181 102.5 276t266.5 95q173 0 269 -95t102 -276q3 -115 0 -209q-19 -367 -371 -367q-353 0 -369 367zM266 356q5 -117 58 -180t153 -63t153 63t58 180q6 116 0 222q-12 239 -211 239q-195 0 -211 -239q-4 -70 0 -222zM274 1181q0 32 22.5 54.5 t54.5 22.5t55 -22.5t23 -54.5t-23 -55t-55 -23t-54.5 23t-22.5 55zM544 1181q0 32 23 54.5t55 22.5t55 -22.5t23 -54.5t-23 -55t-55 -23t-55 23t-23 55z" />
<glyph unicode="&#xf7;" horiz-adv-x="627" d="M14 461v140h588v-140h-588zM196 760v197h203v-197h-203zM198 91v197h203v-197h-203z" />
<glyph unicode="&#xf8;" horiz-adv-x="834" d="M75 360q-3 94 0 209q7 181 102.5 276t266.5 95q94 0 168 -30l47 102l54 -27l-47 -103q142 -92 149 -313q3 -115 0 -209q-19 -367 -371 -367q-100 0 -173 30l-68 -148l-53 29l67 147q-133 87 -142 309zM233 356q3 -103 48 -167l275 600q-47 28 -112 28q-195 0 -211 -239 q-4 -70 0 -222zM327 144q48 -31 117 -31q100 0 153 63t58 180q6 116 0 222q-6 109 -52 168z" />
<glyph unicode="&#xf9;" horiz-adv-x="1006" d="M121 362v566h162v-578q0 -117 62.5 -182.5t160.5 -65.5q99 0 164 66t65 182v578h164v-928h-164v101q-78 -109 -270 -109q-171 0 -257.5 102t-86.5 268zM236 1239h162l262 -203h-113z" />
<glyph unicode="&#xfa;" horiz-adv-x="1014" d="M121 362v566h162v-578q0 -117 62.5 -182.5t160.5 -65.5q99 0 164 66t65 182v578h164v-928h-164v101q-78 -109 -270 -109q-171 0 -257.5 102t-86.5 268zM336 1042l262 203h162l-311 -203h-113z" />
<glyph unicode="&#xfb;" horiz-adv-x="1014" d="M121 362v566h162v-578q0 -117 62.5 -182.5t160.5 -65.5q99 0 164 66t65 182v578h164v-928h-164v101q-78 -109 -270 -109q-171 0 -257.5 102t-86.5 268zM246 1047l221 203h27l200 -203h-90l-123 160l-143 -160h-92z" />
<glyph unicode="&#xfc;" horiz-adv-x="1026" d="M121 362v566h162v-578q0 -117 62.5 -182.5t160.5 -65.5q99 0 164 66t65 182v578h164v-928h-164v101q-78 -109 -270 -109q-171 0 -257.5 102t-86.5 268zM277 1148q0 32 22.5 54.5t54.5 22.5t55 -22.5t23 -54.5t-23 -55t-55 -23t-54.5 23t-22.5 55zM547 1148q0 32 23 54.5 t55 22.5t55 -22.5t23 -54.5t-23 -55t-55 -23t-55 23t-23 55z" />
<glyph unicode="&#xfd;" horiz-adv-x="766" d="M-4 928h176l256 -645l205 645h153l-378 -1188h-158l121 362zM221 1048l262 203h162l-311 -203h-113z" />
<glyph unicode="&#xfe;" horiz-adv-x="840" d="M130 0v1063h127v-295q72 75 178 75q139 0 218 -80t84 -226q5 -142 -72.5 -227t-229.5 -85q-107 0 -178 72v-297h-127zM260 544q-2 -36 4.5 -71.5t24 -71.5t55.5 -58t91 -22q94 0 135.5 65t36.5 158q-5 95 -48.5 148t-123.5 53q-81 0 -125 -53t-50 -148z" />
<glyph unicode="&#xff;" horiz-adv-x="758" d="M-4 928h176l256 -645l205 645h153l-378 -1188h-158l121 362zM204 1159q0 32 22.5 54.5t54.5 22.5t55 -22.5t23 -54.5t-23 -55t-55 -23t-54.5 23t-22.5 55zM474 1159q0 32 23 54.5t55 22.5t55 -22.5t23 -54.5t-23 -55t-55 -23t-55 23t-23 55z" />
<glyph unicode="&#x152;" horiz-adv-x="1630" d="M113 496q-3 127 0 284q7 248 122 377.5t327 129.5q94 0 175 -38t130 -101v130h666v-133h-519v-395h448v-132h-448v-485h519v-133h-666v127q-49 -61 -130 -97.5t-177 -36.5q-214 0 -325.5 123t-121.5 380zM271 465q5 -173 78 -264.5t211 -91.5t212 92t80 264q6 227 0 354 q-20 350 -292 350q-269 0 -289 -350q-8 -135 0 -354z" />
<glyph unicode="&#x153;" horiz-adv-x="1532" d="M108 360q-3 94 0 209q7 181 102.5 276t266.5 95q216 0 309 -176q96 177 309 177q367 0 367 -526h-605q19 -297 238 -297q90 0 141 49t53 120h161q-22 -149 -108.5 -221.5t-246.5 -72.5q-217 0 -310 169q-90 -169 -308 -169q-353 0 -369 367zM266 356q5 -117 58 -180 t153 -63t156 63.5t61 179.5q6 116 0 222q-6 116 -61.5 177.5t-155.5 61.5q-195 0 -211 -239q-4 -70 0 -222zM857 527h448q-11 161 -63 225.5t-147 64.5q-110 0 -170 -70t-68 -220z" />
<glyph unicode="&#x178;" horiz-adv-x="805" d="M-41 1278h187l266 -612l272 612h183l-373 -729v-549h-162v549zM195 1494q0 32 22.5 54.5t54.5 22.5t55 -22.5t23 -54.5t-23 -55t-55 -23t-54.5 23t-22.5 55zM465 1494q0 32 23 54.5t55 22.5t55 -22.5t23 -54.5t-23 -55t-55 -23t-55 23t-23 55z" />
<glyph unicode="&#x2c6;" horiz-adv-x="694" d="M127 1213l221 203h27l200 -203h-90l-123 160l-143 -160h-92z" />
<glyph unicode="&#x2dc;" horiz-adv-x="549" d="M72 1237v72q4 4 18.5 21t23 25t23.5 19.5t31.5 17t34.5 5.5q37 0 68 -18.5t55.5 -37t46.5 -18.5q18 0 34 3.5t30.5 11.5t22.5 13t21.5 16t16.5 13v-63q-17 -22 -28 -34.5t-37 -27t-56 -14.5q-27 0 -49.5 11.5t-35.5 24.5t-36.5 24.5t-52.5 11.5q-31 0 -56.5 -14 t-47.5 -36.5t-27 -25.5z" />
<glyph unicode="&#x2000;" horiz-adv-x="827" />
<glyph unicode="&#x2001;" horiz-adv-x="1654" />
<glyph unicode="&#x2002;" horiz-adv-x="827" />
<glyph unicode="&#x2003;" horiz-adv-x="1654" />
<glyph unicode="&#x2004;" horiz-adv-x="551" />
<glyph unicode="&#x2005;" horiz-adv-x="413" />
<glyph unicode="&#x2006;" horiz-adv-x="275" />
<glyph unicode="&#x2007;" horiz-adv-x="275" />
<glyph unicode="&#x2008;" horiz-adv-x="206" />
<glyph unicode="&#x2009;" horiz-adv-x="330" />
<glyph unicode="&#x200a;" horiz-adv-x="91" />
<glyph unicode="&#x2010;" horiz-adv-x="803" d="M100 461v140h588v-140h-588z" />
<glyph unicode="&#x2011;" horiz-adv-x="803" d="M100 461v140h588v-140h-588z" />
<glyph unicode="&#x2012;" horiz-adv-x="803" d="M100 461v140h588v-140h-588z" />
<glyph unicode="&#x2013;" horiz-adv-x="1094" d="M20 474v113h1042v-113h-1042z" />
<glyph unicode="&#x2014;" horiz-adv-x="2163" d="M53 482v92h2067v-92h-2067z" />
<glyph unicode="&#x2018;" horiz-adv-x="428" d="M92 760l80 444h137v-131l-147 -313h-70z" />
<glyph unicode="&#x2019;" horiz-adv-x="426" d="M92 760l80 444h137v-131l-147 -313h-70z" />
<glyph unicode="&#x201a;" horiz-adv-x="428" d="M92 760l80 444h137v-131l-147 -313h-70z" />
<glyph unicode="&#x201c;" horiz-adv-x="618" d="M85 765l72 438h122v-129l-131 -309h-63zM326 765l71 438h121v-129l-130 -309h-62z" />
<glyph unicode="&#x201d;" horiz-adv-x="635" d="M85 765l72 438h122v-129l-131 -309h-63zM326 765l71 438h121v-129l-130 -309h-62z" />
<glyph unicode="&#x201e;" horiz-adv-x="625" d="M85 765l72 438h122v-129l-131 -309h-63zM326 765l71 438h121v-129l-130 -309h-62z" />
<glyph unicode="&#x2022;" horiz-adv-x="659" d="M98 527q0 94 66 159.5t160 65.5t159.5 -65.5t65.5 -159.5t-65.5 -159.5t-159.5 -65.5t-160 65.5t-66 159.5z" />
<glyph unicode="&#x2026;" horiz-adv-x="1612" d="M199 0v197h203v-197h-203zM687 0v197h203v-197h-203zM1209 0v197h203v-197h-203z" />
<glyph unicode="&#x202f;" horiz-adv-x="330" />
<glyph unicode="&#x2039;" horiz-adv-x="942" d="M-7 479v109l817 405v-176l-617 -287l617 -284v-172z" />
<glyph unicode="&#x203a;" horiz-adv-x="1026" d="M190 74v172l617 284l-617 287v176l817 -405v-109z" />
<glyph unicode="&#x205f;" horiz-adv-x="413" />
<glyph unicode="&#x20ac;" horiz-adv-x="913" d="M41 467v100h131v129h-131v101h131v118q0 187 85.5 279t277.5 92q82 0 143.5 -20.5t93 -49t50.5 -67.5t23.5 -66.5t4.5 -56.5h-133q-6 86 -47 124t-135 38q-38 0 -70.5 -8t-67.5 -29t-55.5 -66.5t-20.5 -111.5l-2 -176h209v-101h-209v-129h209v-100h-209l1 -139 q0 -74 18 -125t50 -76.5t67 -36t80 -10.5q91 0 136.5 47.5t45.5 124.5h135q-1 -32 -6.5 -62t-25 -69t-52 -67t-93 -48t-140.5 -20q-194 0 -277.5 86t-84.5 272l1 123h-133z" />
<glyph unicode="&#x2122;" horiz-adv-x="1092" d="M37 1198v80h323v-80h-104v-440h-104v440h-115zM440 758v520h140l139 -336l147 336h131v-520h-75v475l-142 -340h-118l-144 340v-475h-78z" />
<glyph unicode="&#x25fc;" horiz-adv-x="930" d="M0 0v930h930v-930h-930z" />
</font>
</defs>
</svg>
